<svg width="1091" height="81" viewBox="0 0 1091 81" fill="none" xmlns="http://www.w3.org/2000/svg">
<path d="M1090.91 0H1070.92L1014.78 81H1034.78L1090.91 0Z" fill="white"/>
<path d="M1055.33 0H1035.92L979.785 81H999.195L1055.33 0Z" fill="white"/>
<path d="M1019.76 0H1000.94L944.805 81H963.629L1019.76 0Z" fill="white"/>
<path d="M984.18 0H965.944L909.809 81H928.045L984.18 0Z" fill="white"/>
<path d="M948.613 0H930.947L874.812 81H892.461L948.613 0Z" fill="white"/>
<path d="M913.03 0H895.967L839.815 81H856.877L913.03 0Z" fill="white"/>
<path d="M877.446 0H860.971L804.836 81H821.311L877.446 0Z" fill="white"/>
<path d="M841.879 0H825.991L769.839 81H785.727L841.879 0Z" fill="white"/>
<path d="M806.295 0H790.995L734.843 81H750.143L806.295 0Z" fill="white"/>
<path d="M770.728 0H755.998L699.846 81H714.576L770.728 0Z" fill="white"/>
<path d="M735.145 0H721.019L664.866 81H678.993L735.145 0Z" fill="white"/>
<path d="M699.561 0H686.022L629.87 81H643.409L699.561 0Z" fill="white"/>
<path d="M663.994 0H651.042L594.874 81H607.825L663.994 0Z" fill="white"/>
<path d="M628.41 0H616.046L559.877 81H572.258L628.41 0Z" fill="white"/>
<path d="M592.843 0H581.049L524.897 81H536.675L592.843 0Z" fill="white"/>
<path d="M557.26 0H546.07L489.901 81H501.091L557.26 0Z" fill="white"/>
<path d="M521.693 0H511.073L454.904 81H465.524L521.693 0Z" fill="white"/>
<path d="M486.109 0H476.077L419.908 81H429.94L486.109 0Z" fill="white"/>
<path d="M450.525 0H441.097L384.928 81H394.357L450.525 0Z" fill="white"/>
<path d="M414.959 0H406.101L349.932 81H358.773L414.959 0Z" fill="white"/>
<path d="M379.375 0H371.12L314.935 81H323.206L379.375 0Z" fill="white"/>
<path d="M343.808 0H336.124L279.938 81H287.622L343.808 0Z" fill="white"/>
<path d="M308.224 0H301.128L244.942 81H252.039L308.224 0Z" fill="white"/>
<path d="M272.657 0H266.148L209.962 81H216.472L272.657 0Z" fill="white"/>
<path d="M237.074 0H231.151L174.966 81H180.888L237.074 0Z" fill="white"/>
<path d="M201.49 0H196.172L139.969 81H145.304L201.49 0Z" fill="white"/>
<path d="M165.923 0H161.175L104.973 81H109.721L165.923 0Z" fill="white"/>
<path d="M130.339 0H126.179L69.9932 81H74.1538L130.339 0Z" fill="white"/>
<path d="M94.7722 0H91.1988L34.9963 81H38.5698L94.7722 0Z" fill="white"/>
<path d="M59.1887 0H56.2024L0 81H2.98628L59.1887 0Z" fill="white"/>
</svg>
