<svg width="933" height="155" viewBox="0 0 933 155" fill="none" xmlns="http://www.w3.org/2000/svg">
<path d="M110.871 110.87H101.735L118.357 53.2146L110.871 110.87ZM103.867 30.4518L59.4072 153.021H87.7782L93.6909 135.054H108.765L107.394 153.021H139.14L144.114 30.4518H103.842H103.867Z" fill="#BC0F24"/>
<path d="M872.953 111.352H863.843L880.464 53.6966L872.978 111.352H872.953ZM865.949 30.9592L821.489 153.528H849.86L855.798 135.561H870.872L869.527 153.528H901.273L906.247 30.9592H865.974H865.949Z" fill="#BC0F24"/>
<path d="M212.631 30.4518L207.048 102.445L200.805 30.4518H169.059L143.454 153.021H176.57L185.579 74.7085L191.289 153.021H220.066L245.645 30.4518H212.631Z" fill="#BC0F24"/>
<path d="M340.35 30.4518L314.745 153.021H347.506L373.111 30.4518H340.35Z" fill="#BC0F24"/>
<path d="M394.961 30.4518L389.657 55.8283H408.106L387.805 153.021H420.363L440.664 55.8283H459.113L464.417 30.4518H394.961Z" fill="#BC0F24"/>
<path d="M516.032 30.4518L496.796 122.543C495.984 126.502 494.106 128.786 490.122 128.786C486.544 128.786 485.224 126.654 486.062 122.543L505.323 30.4518H471.572L452.057 123.863C448.124 142.642 456.65 155 481.24 155H487.584C510.804 155 526.309 142.489 530.192 123.863L549.732 30.4518H516.006H516.032Z" fill="#BC0F24"/>
<path d="M594.471 57.3256L591.02 73.7949C590.132 78.0836 588 79.7331 583.838 79.7331H579.651L585.538 51.5651H590.309C594.674 51.5651 595.334 53.0369 594.446 57.3256H594.471ZM608.606 30.4518H557.218L531.613 153.021H564.349L574.83 102.775H579.397C583.762 102.775 584.574 104.577 583.711 108.688L576.276 144.291C575.337 148.732 575.946 151.549 577.037 153.046H609.367L609.519 152.209C608.885 150.559 608.428 147.92 609.392 143.301L617.843 102.8C619.771 93.5633 613.478 88.6148 608.276 86.8131C614.493 84.6561 622.69 79.5554 625.075 68.2121L628.45 52.0726C631.521 37.5572 623.07 30.4518 608.58 30.4518H608.606Z" fill="#BC0F24"/>
<path d="M725.49 30.4518L699.885 153.021H732.646L758.251 30.4518H725.49Z" fill="#BC0F24"/>
<path d="M810.121 30.4518L804.513 102.445L798.27 30.4518H766.524L740.919 153.021H774.035L783.044 74.7085L788.754 153.021H817.505L843.136 30.4518H810.121Z" fill="#BC0F24"/>
<path d="M59.5334 127.01L54.1028 153.046H0L25.6049 30.4518H56.8689L36.7199 127.01H59.5334Z" fill="#BC0F24"/>
<path d="M678.621 57.1733L675.576 71.6633C674.612 76.2818 672.125 77.7791 668.344 77.7791H663.801L669.308 51.4128H674.053C678.621 51.4128 679.382 53.3668 678.596 57.1987L678.621 57.1733ZM669.587 105.262L665.527 124.7C664.436 129.979 662.583 131.273 658.599 131.273C656.95 131.273 655.605 130.613 654.742 129.547C653.879 128.481 653.524 127.01 653.879 125.411L659.411 98.9939H664.766C667.506 98.9939 669.003 99.6536 669.587 101.024C670.044 102.039 669.968 103.435 669.587 105.236V105.262ZM712.473 44.5358C711.636 34.5374 703.972 30.4518 690.548 30.4518H640.937L615.332 153.021H644.921L645.505 136.424C645.454 141.246 648.905 157.893 672.886 154.416C682.859 152.97 696.156 141.246 699.608 124.675L703.389 106.556C704.15 102.876 704.175 99.8059 703.642 97.2429C702.12 89.8075 696.055 86.8385 691.284 85.6204C696.309 84.3008 706.408 78.718 708.87 67.0194L711.687 53.4937C712.397 50.0679 712.651 47.0988 712.448 44.5104L712.473 44.5358Z" fill="#BC0F24"/>
<path d="M921.068 138.962H919.52V141.804H921.119C922.286 141.804 922.844 141.271 922.844 140.383C922.844 139.495 922.261 138.937 921.093 138.937L921.068 138.962ZM921.093 143.936H919.571V146.524H916.805L916.703 136.805H921.22C923.91 136.805 925.636 138.175 925.636 140.409C925.636 141.855 924.951 142.895 923.732 143.479L925.89 146.524H922.895L921.068 143.936H921.093Z" fill="#BC0F24"/>
<path d="M920.813 133.1C915.94 133.1 912.007 137.008 912.058 141.804C912.108 146.6 916.118 150.508 920.99 150.508C925.863 150.508 929.796 146.6 929.745 141.804C929.694 137.008 925.685 133.1 920.813 133.1ZM921.016 153.528C914.443 153.528 909.038 148.25 908.962 141.804C908.886 135.333 914.189 130.08 920.762 130.08C927.334 130.08 932.74 135.359 932.816 141.804C932.892 148.275 927.588 153.528 921.016 153.528Z" fill="#BC0F24"/>
<path d="M268.306 122.442L282.77 53.1892H287.719C292.083 53.1892 293.022 55.3208 291.982 60.2692L279.091 122.036C278.025 127.136 276.147 129.446 271.376 129.446H266.682L268.28 122.416L268.306 122.442ZM302.006 30.4518H255.186L229.556 153.021H280.639C280.639 153.021 292.566 153.147 301.524 144.418C301.524 144.418 301.532 144.409 301.549 144.393C302.539 143.403 303.503 142.312 304.417 141.119C304.467 141.043 304.518 140.967 304.569 140.916C308.02 136.399 310.583 130.892 311.852 124.878L325.936 57.4778C330.021 37.8871 320.251 30.4772 302.006 30.4772V30.4518Z" fill="#BC0F24"/>
<path d="M582.082 24V18.7014H586.284V9.77898H582.996V5.72888C585.371 5.48526 586.619 4.41945 587.259 2.16601H591.796V18.7014H595.755V24H582.082ZM618.598 14.4381C614.609 14.4381 612.355 12.4283 612.355 8.37819V7.98232C612.355 6.58153 612.599 5.45481 613.178 4.5108C614.243 2.68369 616.192 1.73969 618.598 1.73969C622.283 1.73969 624.81 3.87132 624.81 7.98232V8.37819C624.81 12.4283 622.344 14.4381 618.598 14.4381ZM618.598 10.6012C619.877 10.6012 620.395 9.93124 620.395 8.28684V7.98232C620.395 6.21611 619.816 5.51572 618.598 5.51572C617.41 5.51572 616.801 6.21611 616.801 7.98232V8.28684C616.801 9.83988 617.41 10.6012 618.598 10.6012ZM681.973 24H666.32V2.16601H681.668V6.9165H671.771V10.5707H680.694V15.3517H671.771V19.0363H681.973V24ZM704.745 10.9057V24H699.538V2.16601H704.776L712.754 15.0472V2.16601H717.961V24H712.876L704.745 10.9057ZM745.153 24.4568C739.032 24.4568 735.804 21.3202 735.804 14.5904V11.8193C735.804 4.99804 739.458 1.73969 745.305 1.73969C751.03 1.73969 754.38 4.48035 754.654 10.2358V10.9057H748.777V10.5707C748.624 8.04322 747.68 6.73379 745.305 6.73379C742.747 6.73379 741.59 8.46955 741.59 12.1847V14.0727C741.59 17.5442 742.808 19.28 745.305 19.28C747.62 19.28 748.655 17.9096 748.807 15.2908V14.8949H754.745V15.443C754.471 21.5943 751.182 24.4568 745.153 24.4568ZM781.167 24.4568C775.168 24.4568 771.758 21.2898 771.758 14.3163V11.9715C771.758 9.68762 772.123 7.83006 772.945 6.27701C774.529 3.26228 777.391 1.73969 781.198 1.73969C783.025 1.73969 784.639 2.13556 786.07 2.8664C788.932 4.389 790.638 7.37328 790.638 11.9715V14.3163C790.638 16.6306 790.211 18.4882 789.45 20.0108C787.867 23.0255 784.974 24.4568 781.167 24.4568ZM781.198 19.4322C783.725 19.4322 784.821 17.6965 784.821 14.0118V12.2456C784.821 8.5 783.725 6.73379 781.198 6.73379C778.64 6.73379 777.574 8.59135 777.574 12.2151V14.0118C777.574 17.6051 778.64 19.4322 781.198 19.4322ZM813.676 10.9057V24H808.469V2.16601H813.707L821.685 15.0472V2.16601H826.892V24H821.807L813.676 10.9057ZM855.515 7.28192V24H849.973V7.28192H844.461V2.16601H861.118V7.28192H855.515ZM884.132 16.6916V24H878.651V2.16601H887.482C889.553 2.16601 891.167 2.44008 892.446 3.01866C894.973 4.17583 896.039 6.21611 896.039 8.95678C896.039 11.7279 894.912 13.4332 892.902 14.3772C894.669 15.1385 895.552 16.5697 895.552 19.3104V22.7819C895.552 23.3605 895.734 23.7564 896.069 24H890.344C890.009 23.7564 889.857 23.3301 889.857 22.6906V19.5236C889.857 17.3615 889.035 16.6916 886.842 16.6916H884.132ZM884.132 6.8556V11.9106H887.33C889.37 11.9106 890.405 10.9666 890.405 9.3222C890.405 7.76915 889.522 6.8556 887.36 6.8556H884.132ZM922.661 24.4568C916.662 24.4568 913.252 21.2898 913.252 14.3163V11.9715C913.252 9.68762 913.617 7.83006 914.439 6.27701C916.023 3.26228 918.885 1.73969 922.692 1.73969C924.519 1.73969 926.133 2.13556 927.564 2.8664C930.427 4.389 932.132 7.37328 932.132 11.9715V14.3163C932.132 16.6306 931.706 18.4882 930.944 20.0108C929.361 23.0255 926.468 24.4568 922.661 24.4568ZM922.692 19.4322C925.219 19.4322 926.316 17.6965 926.316 14.0118V12.2456C926.316 8.5 925.219 6.73379 922.692 6.73379C920.134 6.73379 919.068 8.59135 919.068 12.2151V14.0118C919.068 17.6051 920.134 19.4322 922.692 19.4322Z" fill="#EEEEEE"/>
</svg>
